<?xml version="1.0" encoding="UTF-8" standalone="no"?>
<!-- Created with Inkscape (http://www.inkscape.org/) -->

<svg
   xmlns:dc="http://purl.org/dc/elements/1.1/"
   xmlns:cc="http://creativecommons.org/ns#"
   xmlns:rdf="http://www.w3.org/1999/02/22-rdf-syntax-ns#"
   xmlns:svg="http://www.w3.org/2000/svg"
   xmlns="http://www.w3.org/2000/svg"
   xmlns:sodipodi="http://sodipodi.sourceforge.net/DTD/sodipodi-0.dtd"
   xmlns:inkscape="http://www.inkscape.org/namespaces/inkscape"
   width="64px"
   height="64px"
   id="svg2985"
   version="1.1"
   inkscape:version="0.48.0 r9654"
   sodipodi:docname="New document 2">
  <defs
     id="defs2987" />
  <sodipodi:namedview
     id="base"
     pagecolor="#ffffff"
     bordercolor="#666666"
     borderopacity="1.0"
     inkscape:pageopacity="0.0"
     inkscape:pageshadow="2"
     inkscape:zoom="5.5"
     inkscape:cx="59.400117"
     inkscape:cy="32"
     inkscape:current-layer="layer1"
     showgrid="true"
     inkscape:document-units="px"
     inkscape:grid-bbox="true"
     inkscape:window-width="1280"
     inkscape:window-height="947"
     inkscape:window-x="0"
     inkscape:window-y="24"
     inkscape:window-maximized="1" />
  <metadata
     id="metadata2990">
    <rdf:RDF>
      <cc:Work
         rdf:about="">
        <dc:format>image/svg+xml</dc:format>
        <dc:type
           rdf:resource="http://purl.org/dc/dcmitype/StillImage" />
        <dc:title></dc:title>
      </cc:Work>
    </rdf:RDF>
  </metadata>
  <g
     id="layer1"
     inkscape:label="Layer 1"
     inkscape:groupmode="layer">
    <g
       transform="translate(6.5454546,-12)"
       style="font-size:75px;font-style:normal;font-weight:normal;line-height:125%;letter-spacing:0px;word-spacing:0px;fill:#000000;fill-opacity:1;stroke:none;font-family:Sans"
       id="flowRoot2993">
      <path
         d="m 18.603516,57.099023 c -1.4e-5,1.139338 0.423163,2.132176 1.269531,2.978515 0.878891,0.813815 2.148421,1.220716 3.808594,1.220703 1.204407,1.3e-5 2.473937,-0.374336 3.808593,-1.123046 1.334612,-0.748684 2.555314,-1.708969 3.66211,-2.88086 1.139296,-1.171857 2.083305,-2.473939 2.832031,-3.90625 0.781221,-1.43227 1.204397,-2.832008 1.269531,-4.199219 l -1.171875,0.09766 c -2.148464,2.4e-5 -3.75979,-0.520809 -4.833984,-1.5625 -1.04169,-1.04164 -1.562522,-2.783175 -1.5625,-5.22461 -2.2e-5,-1.074186 0.179014,-1.985643 0.537109,-2.734375 0.390602,-0.748663 0.878883,-1.350876 1.464844,-1.80664 0.618465,-0.488245 1.318334,-0.830042 2.099609,-1.025391 0.781223,-0.227827 1.578749,-0.34176 2.392578,-0.341797 1.432262,3.7e-5 2.701792,0.341834 3.808594,1.025391 1.106737,0.651077 2.018195,1.513706 2.734375,2.58789 0.748662,1.0417 1.302047,2.22985 1.660156,3.564454 0.390588,1.302112 0.585901,2.587918 0.585938,3.857421 -3.7e-5,2.408878 -0.553422,4.768902 -1.660156,7.080079 -1.106806,2.311214 -2.571648,4.361993 -4.394532,6.152343 -1.790394,1.790376 -3.857449,3.238942 -6.201171,4.345703 -2.311221,1.074227 -4.687521,1.611336 -7.128907,1.611329 -0.944027,7e-6 -1.969417,-0.244134 -3.076172,-0.732422 C 19.43358,65.595125 18.424466,64.992912 17.480469,64.276757 16.536447,63.528069 15.70637,62.714268 14.990234,61.835351 14.27408,60.956457 13.802075,60.110104 13.574219,59.296288 l 0,-15.820312 -4.7851565,0 -4.6386719,-4.785156 9.4238284,0 0,-9.472657 c -8e-6,-1.171829 -0.309253,-1.98563 -0.927735,-2.441406 -0.585944,-0.488234 -1.448573,-0.813754 -2.58789,-0.976562 -1.0742225,4.8e-5 -1.7740916,0.162808 -2.0996096,0.488281 C 7.5683573,25.60493 7.2591128,25.051545 7.03125,24.62832 6.8359361,24.17264 6.6731759,23.798291 6.5429687,23.505273 6.4127595,23.179802 6.3313793,22.919386 6.2988281,22.724023 6.2662752,22.528761 6.2499992,22.349725 6.25,22.186913 c -8e-7,-0.585885 0.2441396,-1.074166 0.7324219,-1.464843 0.5208313,-0.390572 1.1067682,-0.699816 1.7578125,-0.927735 0.6835898,-0.260362 1.3183546,-0.439398 1.9042966,-0.537109 0.618484,-0.0976 1.025385,-0.14643 1.220703,-0.146485 1.074212,5.5e-5 2.001945,0.227919 2.783204,0.683594 0.813792,0.423231 1.497385,1.04172 2.050781,1.855469 0.553373,0.781301 0.97655,1.741587 1.269531,2.880859 0.325508,1.106819 0.537096,2.327521 0.634766,3.66211 l 0,10.498047 2.783203,0 4.6875,4.785156 -7.470703,0 0,13.623047"
         style="font-variant:normal;font-stretch:normal;font-family:AdorshoLipi;-inkscape-font-specification:AdorshoLipi"
         id="path3002" />
    </g>
  </g>
</svg>
