<?xml version="1.0" standalone="no"?>
<!DOCTYPE svg PUBLIC "-//W3C//DTD SVG 20010904//EN"
 "http://www.w3.org/TR/2001/REC-SVG-20010904/DTD/svg10.dtd">
<svg version="1.0" xmlns="http://www.w3.org/2000/svg"
 width="400.000000pt" height="400.000000pt" viewBox="0 0 400.000000 400.000000"
 preserveAspectRatio="xMidYMid meet">
<metadata>
Created by potrace 1.14, written by Peter Selinger 2001-2017
</metadata>
<g transform="translate(0.000000,400.000000) scale(0.100000,-0.100000)"
fill="#000000" stroke="none">
<path d="M0 2000 l0 -2000 2000 0 2000 0 0 2000 0 2000 -2000 0 -2000 0 0
-2000z m2757 1391 l22 -18 -14 -134 c-19 -179 -20 -953 -1 -1084 10 -67 10
-94 2 -104 -8 -10 -11 -108 -10 -320 1 -280 3 -313 22 -385 12 -43 32 -97 44
-119 26 -46 79 -87 114 -87 21 0 24 -5 24 -40 l0 -40 -380 0 -380 0 0 39 c0
39 2 41 89 98 l90 58 0 455 c1 265 -3 450 -8 445 -7 -8 -281 -428 -327 -502
-33 -53 -97 -13 -208 132 -96 124 -192 267 -199 297 -7 28 -53 88 -68 88 -5 0
-9 -198 -9 -480 l0 -480 58 -29 c55 -28 122 -89 122 -111 0 -6 -139 -10 -370
-10 -308 0 -370 2 -370 14 0 22 61 76 123 107 l57 29 0 834 0 834 -105 58
c-104 58 -105 59 -105 96 l0 38 193 0 c180 0 195 -2 242 -24 83 -39 178 -158
236 -296 30 -73 329 -532 343 -527 6 2 25 30 42 63 17 32 105 174 195 314 147
226 373 590 470 753 18 31 36 57 39 57 3 -1 15 -9 27 -19z"/>
</g>
</svg>
